<?xml version="1.0" encoding="UTF-8"?>
<svg width="277px" height="237px" viewBox="0 0 277 237" version="1.1" xmlns="http://www.w3.org/2000/svg" xmlns:xlink="http://www.w3.org/1999/xlink">
    <!-- Generator: Sketch 56.3 (81716) - https://sketch.com -->
    <title>SpendaWhale</title>
    <desc>Created with Sketch.</desc>
    <defs>
        <path d="M67.8163284,48.1360162 C69.3817175,48.1360162 94.5532303,49.1638251 128.859564,46.6151853 L219.569622,43.8500724 C241.71188,43.1751104 260.207006,60.6398584 260.879642,82.8586788 C260.891971,83.265937 260.898137,83.6733596 260.898137,84.0808056 L260.898137,168.496338 C260.898137,173.686859 259.985346,177.610654 259.201949,179.441753 C258.418552,181.272851 256.772773,182.067568 255.091971,182.067568 C239.52316,182.067568 216.169944,182.067568 185.032323,182.067568 C181.355643,182.092548 178.472086,180.761531 176.23094,177.985577 L173.657584,177.849855 C176.379982,182.036372 180.173161,184.113096 185.037122,184.080027 C213.447285,184.080027 235.423417,184.080027 250.965519,184.080027 C252.537049,184.080027 253.795599,184.535704 254.41611,185.689296 C255.036621,186.842889 254.1079,188.296086 253.672621,189.112801 C251.575152,193.048288 248.497202,194.124416 244.575277,196.229137 C240.653352,198.333858 236.76319,199.454707 226.035385,199.454707 L164.649558,199.454707 C159.856613,205.767368 156.935154,211.760786 150.627375,215.624569 C144.046126,219.655863 131.381454,223.714653 130.449068,220.803076 C129.516682,217.891499 142.344512,212.35371 142.702306,199.454707 C95.4617713,199.454707 57.1657514,161.026269 57.1657514,113.622388 C57.1657514,112.688929 57.1809266,111.755532 57.2112707,110.82257 L58.3396112,76.1305955 C58.9535365,64.4820973 58.3929661,57.2420924 56.6578999,54.4105809 L56.6411547,54.4210035 C56.6181087,54.3625944 51.5532211,47.4258688 51.1391011,46.1635141 C50.9659343,45.6356526 50.3493018,45.7336433 50.0223457,45.8997704 C49.6953896,46.0658976 49.4762022,46.3238749 49.6493691,46.8517363 C50.1074405,48.2480676 51.1821508,49.1134192 54.4756456,54.3364025 C54.6534014,54.6182962 54.6534014,55.3732173 54.3277933,55.5705634 C54.0021853,55.7679095 52.2297312,56.6097034 51.6475794,56.8079402 C45.9493517,58.7483246 41.047966,59.006298 32.2931019,56.8079402 C23.5382377,54.6095823 15.3137814,49.949338 8.66943529,45.2486463 C4.14917623,42.0506877 1.04332834,38.6672393 2.84217094e-14,34.4141901 C8.10846484,35.8184677 12.9165088,37.1775741 19.9370127,37.1775741 C26.9575166,37.1775741 36.4293194,36.8766007 44.3362726,31.5169234 C52.2432257,26.1572462 63.82997,12.1735355 60.6240597,-1.42108547e-14 C85.248077,5.95311172 81.1432631,29.1807365 76.4573028,36.5206065 C75.0695723,38.694283 71.6421895,41.7894225 66.2461298,45.8723242 C65.9999277,46.0586118 65.6636943,46.0567401 65.2374296,45.8667092 C61.6908269,42.363809 59.8062308,40.5107614 59.5836412,40.3075665 C59.2497569,40.0027741 58.7124416,40.1374299 58.4277615,40.4179492 C58.1430813,40.6984686 57.9920734,41.0379939 58.3396112,41.4706751 C59.2703422,42.6294261 64.5727014,47.2142365 64.8397262,47.4517077 C65.106751,47.689179 66.2509394,48.1360162 67.8163284,48.1360162 Z" id="path-1"></path>
        <filter x="-3.1%" y="-3.6%" width="112.3%" height="114.4%" filterUnits="objectBoundingBox" id="filter-2">
            <feOffset dx="8" dy="8" in="SourceAlpha" result="shadowOffsetOuter1"></feOffset>
            <feGaussianBlur stdDeviation="4" in="shadowOffsetOuter1" result="shadowBlurOuter1"></feGaussianBlur>
            <feColorMatrix values="0 0 0 0 0   0 0 0 0 0   0 0 0 0 0  0 0 0 0.198235358 0" type="matrix" in="shadowBlurOuter1"></feColorMatrix>
        </filter>
    </defs>
    <g id="Page-1" stroke="none" stroke-width="1" fill="none" fill-rule="evenodd">
        <g id="Spenda-White" transform="translate(-285.000000, -117.000000)">
            <g id="SpendaWhale" transform="translate(285.000000, 117.000000)">
                <g id="Combined-Shape">
                    <use fill="black" fill-opacity="1" filter="url(#filter-2)" xlink:href="#path-1"></use>
                    <use fill="#F1F1F1" fill-rule="evenodd" xlink:href="#path-1"></use>
                </g>
                <path d="M162.447926,162.678484 C166.601837,167.57471 170.542059,170.022824 174.268594,170.022824 C179.858396,170.022824 183.028705,162.351074 184.526289,162.351074 C183.44843,162.351074 182.363788,161.828507 181.272362,160.783375 C178.815983,158.913439 176.375575,157.97847 173.951138,157.97847 C171.526702,157.97847 167.692298,159.545141 162.447926,162.678484 Z" id="Path-6" fill="#FFFFFF"></path>
                <path d="M173.657584,169.375525 C177.534266,169.375525 180.676938,166.221986 180.676938,162.331899 C180.676938,158.441812 177.534266,155.288273 173.657584,155.288273 C169.780901,155.288273 166.638229,158.441812 166.638229,162.331899 C166.638229,166.221986 169.780901,169.375525 173.657584,169.375525 Z" id="Combined-Shape" fill="#333333"></path>
                <path d="M168.962192,160.92476 C168.460074,160.92476 167.950949,162.558743 167.950949,162.920524 C167.950949,163.161712 168.394398,163.759863 169.281296,164.714977 C169.107316,163.912445 169.107316,163.202127 169.281296,162.584023 C169.455276,161.96592 169.839687,161.412832 170.434529,160.92476 C169.787717,160.92476 169.296938,160.92476 168.962192,160.92476 Z" id="Path-5" fill-opacity="0.484265734" fill="#FFFFFF"></path>
                <path d="M173.499943,158.938991 C177.376625,158.938991 185.180262,164.277437 185.180262,161.600225 C185.180262,158.923013 177.376625,153.010006 173.499943,153.010006 C169.62326,153.010006 161.581923,159.303625 161.581923,161.980838 C161.581923,164.65805 169.62326,158.938991 173.499943,158.938991 Z" id="Path-Copy-4" fill="#F1F1F1"></path>
                <path d="M177.771523,179.580386 C177.22713,179.115347 176.714106,178.584041 176.23094,177.985577 L173.657584,177.849855 C176.16501,181.705788 179.580789,183.771968 183.904919,184.048395 L183.968772,184.080416 C184.287058,184.080416 184.604396,184.080416 184.920787,184.080416 C184.922106,184.080416 184.923424,184.080416 184.924743,184.080416 C216.866155,184.080416 239.149501,184.080416 251.774782,184.080416 C252.601911,184.135495 253.621842,184.384002 254.224562,185.337533 C255.16839,186.830713 254.390871,187.848791 253.672621,189.112801 C251.461946,193.00325 248.497202,194.124416 244.575277,196.229137 C240.653352,198.333858 236.76319,199.454707 226.035385,199.454707 L164.649558,199.454707 C159.856613,205.767368 156.935154,211.760786 150.627375,215.624569 C144.046126,219.655863 131.381454,223.714653 130.449068,220.803076 C129.516682,217.891499 142.344512,212.35371 142.702306,199.454707 C106.888994,199.454707 76.2163101,177.36896 63.4727478,146.03018 C72.1161085,155.119307 89.5768944,172.713162 106.173059,177.849855 C118.217073,181.577608 136.065076,184.430456 165.832329,181.582531 C171.327948,181.056748 170.352043,177.139901 174.276365,176.979953 C176.409207,176.893023 177.57426,177.759833 177.771523,179.580386 Z" id="Combined-Shape" fill-opacity="0.091482736" fill="#000000"></path>
                <path d="M81.1594165,48.3386758 C92.0863173,48.369319 108.931816,48.0956307 128.859564,46.6151853 L219.569622,43.8500724 C241.71188,43.1751104 260.207006,60.6398584 260.879642,82.8586788 C260.891971,83.265937 260.898137,83.6733596 260.898137,84.0808056 L260.898137,87.4980286 C245.457186,91.2900525 229.83717,84.2960706 212.881286,74.838137 C184.239014,58.8615756 163.45517,53.5178471 135.491302,59.3677054 C112.380789,64.2022733 94.2701609,60.5259301 81.1594165,48.3386758 Z" id="Combined-Shape" fill="#FFFFFF"></path>
                <ellipse id="Oval" fill="#DBDBDB" cx="213.714286" cy="47.796034" rx="6.26728111" ry="1.25779037"></ellipse>
                <path d="M213.714286,46.5382436 C212.767918,46.5382436 207.447005,46.8126431 207.447005,47.796034 C207.447005,48.2454535 208.621475,48.6398207 210.388046,48.862259 C210.794166,47.7002513 211.851721,47.4111374 213.714286,46.5382436 Z" id="Oval-Copy" fill="#C6C6C6"></path>
                <path d="M255.091971,182.067568 L185.032323,182.067568 C181.355643,182.092548 179.656457,180.351181 177.415311,177.575226 C176.72714,176.623394 175.926289,176.203141 175.012758,176.314466 C174.099227,176.425791 173.647447,176.937588 173.657418,177.849855 C176.379982,182.036372 180.173161,184.113096 185.037122,184.080027 L251.276559,184.080027 C250.868323,183.709249 250.778473,183.331409 251.00701,182.946505 C251.235548,182.561602 252.597201,182.268623 255.091971,182.067568 Z" id="Path-Copy" fill="#929292"></path>
                <path d="" id="Path-2" stroke="#979797" stroke-width="2.00552995"></path>
                <path d="M142.702306,199.454707 C140.715051,191.599434 138.816174,187.671798 137.005674,187.671798 C135.195175,187.671798 133.947509,191.448467 133.262678,199.001805 C135.208383,199.246125 136.781654,199.397093 137.982492,199.454707 C139.183329,199.512322 140.756601,199.512322 142.702306,199.454707 Z" id="Path-3" fill-opacity="0.1" fill="#000000"></path>
            </g>
        </g>
    </g>
</svg>